<?xml version="1.0" encoding="UTF-8"?>
<svg width="55px" height="58px" viewBox="0 0 55 58" version="1.1" xmlns="http://www.w3.org/2000/svg" xmlns:xlink="http://www.w3.org/1999/xlink">
    <!-- Generator: Sketch 63.1 (92452) - https://sketch.com -->
    <title>5starreviews</title>
    <desc>Created with Sketch.</desc>
    <defs>
        <path d="M30.3343902,0.265609756 C29.5979268,0.267439024 28.869878,0.295609756 28.1542683,0.349390244 L28.1542683,0.349390244 C20.0842683,0.955609756 12.2729268,4.76012195 6.81219512,10.7206098 L6.81219512,10.7206098 C0.0358536585,18.1185366 -1.20987805,28.8340244 1.34231707,38.1980488 L1.34231707,38.1980488 C1.68219512,39.4467073 2.10036585,40.7956098 2.60780488,42.167561 L2.60780488,42.167561 C3.51365854,44.7706098 4.77768293,47.3030488 6.39841463,49.7169512 L6.39841463,49.7169512 C11.3813415,57.1368293 24.9541463,60.7939024 30.5370732,52.1323171 L30.5370732,52.1323171 C33.0076829,48.2992683 32.2719512,43.4187805 32.8997561,39.1328049 L32.8997561,39.1328049 C33.2443902,36.7854878 33.9519512,34.5428049 35.1837805,32.5097561 L35.1837805,32.5097561 C36.6943902,30.0146341 39.2509756,28.5069512 41.8185366,27.2926829 L41.8185366,27.2926829 C46.0576829,25.2863415 51.2476829,25.172561 53.1054878,20.1336585 L53.1054878,20.1336585 C54.6362195,15.9841463 51.81,11.0817073 49.2867073,7.98621951 L49.2867073,7.98621951 C44.892439,2.59390244 37.3456098,0.283170732 30.4887805,0.265609756 L30.4887805,0.265609756 L30.3343902,0.265609756 Z" id="path-1"></path>
        <linearGradient x1="-14.6783643%" y1="-39.1851024%" x2="113.460466%" y2="133.60678%" id="linearGradient-3">
            <stop stop-color="#FFFFFF" offset="0%"></stop>
            <stop stop-color="#D4EDFB" offset="100%"></stop>
        </linearGradient>
        <polygon id="path-4" points="0.0556870032 0.204018293 18.0881707 0.204018293 18.0881707 17.382568 0.0556870032 17.382568"></polygon>
        <polygon id="path-6" points="0.0961327962 0.0495365854 14.7954878 0.0495365854 14.7954878 11.1630558 0.0961327962 11.1630558"></polygon>
    </defs>
    <g id="RWD" stroke="none" stroke-width="1" fill="none" fill-rule="evenodd">
        <g id="0-0-1-Home_outlined_input-Copy" transform="translate(-22.000000, -2496.000000)">
            <g id="5starreviews" transform="translate(22.000000, 2496.000000)">
                <g id="Group-107" transform="translate(0.731707, 0.000000)">
                    <mask id="mask-2" fill="white">
                        <use xlink:href="#path-1"></use>
                    </mask>
                    <g id="Clip-106"></g>
                    <path d="M30.3343902,0.265609756 C29.5979268,0.267439024 28.869878,0.295609756 28.1542683,0.349390244 L28.1542683,0.349390244 C20.0842683,0.955609756 12.2729268,4.76012195 6.81219512,10.7206098 L6.81219512,10.7206098 C0.0358536585,18.1185366 -1.20987805,28.8340244 1.34231707,38.1980488 L1.34231707,38.1980488 C1.68219512,39.4467073 2.10036585,40.7956098 2.60780488,42.167561 L2.60780488,42.167561 C3.51365854,44.7706098 4.77768293,47.3030488 6.39841463,49.7169512 L6.39841463,49.7169512 C11.3813415,57.1368293 24.9541463,60.7939024 30.5370732,52.1323171 L30.5370732,52.1323171 C33.0076829,48.2992683 32.2719512,43.4187805 32.8997561,39.1328049 L32.8997561,39.1328049 C33.2443902,36.7854878 33.9519512,34.5428049 35.1837805,32.5097561 L35.1837805,32.5097561 C36.6943902,30.0146341 39.2509756,28.5069512 41.8185366,27.2926829 L41.8185366,27.2926829 C46.0576829,25.2863415 51.2476829,25.172561 53.1054878,20.1336585 L53.1054878,20.1336585 C54.6362195,15.9841463 51.81,11.0817073 49.2867073,7.98621951 L49.2867073,7.98621951 C44.892439,2.59390244 37.3456098,0.283170732 30.4887805,0.265609756 L30.4887805,0.265609756 L30.3343902,0.265609756 Z" id="Fill-105" fill="url(#linearGradient-3)" mask="url(#mask-2)"></path>
                </g>
                <g id="Group-134" transform="translate(0.000000, 11.707317)">
                    <path d="M9.35315854,9.51197561 L11.9148659,14.7030732 C11.956939,14.7883171 12.0392561,14.8472195 12.1332805,14.8607561 L17.8618171,15.6938049 C18.0988902,15.7278293 18.194378,16.0197805 18.022061,16.1869756 L13.8765732,20.2281951 C13.8088902,20.2944146 13.7777927,20.3902683 13.7935244,20.4842927 L14.7725488,26.1901463 C14.8124268,26.426122 14.564378,26.6068537 14.3521829,26.4949024 L9.22803659,23.8014878 C9.1442561,23.7572195 9.04328049,23.7572195 8.95876829,23.8014878 L3.83462195,26.4949024 C3.62315854,26.6068537 3.37510976,26.426122 3.41571951,26.1901463 L4.39328049,20.4842927 C4.4097439,20.3902683 4.37864634,20.2944146 4.31096341,20.2281951 L0.16547561,16.1869756 C-0.00684146341,16.0197805 0.0879146341,15.7278293 0.325353659,15.6938049 L6.05462195,14.8607561 C6.14828049,14.8472195 6.22986585,14.7883171 6.27193902,14.7030732 L8.83437805,9.51197561 C8.94047561,9.2964878 9.24669512,9.2964878 9.35315854,9.51197561" id="Fill-108" fill="#F3CC30"></path>
                    <path d="M9.09376829,10.7110244 L6.81120732,15.1330976 C6.69084146,15.3657805 6.46145122,15.5201707 6.20132927,15.5439512 L1.24364634,15.9961463 L6.48084146,16.2412683 C6.81376829,16.2566341 7.11815854,16.0550488 7.23376829,15.7426098 L9.09376829,10.7110244 Z" id="Fill-110" fill="#F7DB5E"></path>
                    <path d="M3.5277439,25.533439 L3.41542683,26.1901463 C3.37518293,26.426122 3.62323171,26.6068537 3.83469512,26.4949024 L8.95884146,23.8014878 C9.04335366,23.7572195 9.14432927,23.7572195 9.22810976,23.8014878 L14.3522561,26.4949024 C14.5644512,26.6068537 14.8125,26.426122 14.7722561,26.1901463 L13.7935976,20.4842927 C13.7778659,20.3902683 13.8089634,20.2951463 13.8766463,20.2281951 L18.0221341,16.1869756 C18.1944512,16.0197805 18.0989634,15.7278293 17.8618902,15.6938049 L15.9433537,15.4153902 C12.8398171,20.9844146 8.08737805,23.9170976 3.5277439,25.533439" id="Fill-112" fill="#EDBD31"></path>
                    <g id="Group-116" transform="translate(36.951220, 9.146341)">
                        <mask id="mask-5" fill="white">
                            <use xlink:href="#path-4"></use>
                        </mask>
                        <g id="Clip-115"></g>
                        <path d="M9.33171951,0.365634146 L11.8934268,5.55673171 C11.9347683,5.64197561 12.0178171,5.70087805 12.1114756,5.71441463 L17.8400122,6.54746341 C18.0774512,6.5814878 18.1722073,6.87343902 18.000622,7.04063415 L13.8544024,11.0818537 C13.7870854,11.1480732 13.7563537,11.2439268 13.7713537,11.3379512 L14.7507439,17.0438049 C14.7909878,17.2797805 14.542939,17.4605122 14.3307439,17.348561 L9.20586585,14.6551463 C9.12245122,14.610878 9.02110976,14.610878 8.93659756,14.6551463 L3.81318293,17.348561 C3.6009878,17.4605122 3.35293902,17.2797805 3.39318293,17.0438049 L4.37110976,11.3379512 C4.38757317,11.2439268 4.35647561,11.1480732 4.28842683,11.0818537 L0.143304878,7.04063415 C-0.0282804878,6.87343902 0.0664756098,6.5814878 0.303182927,6.54746341 L6.03245122,5.71441463 C6.12684146,5.70087805 6.20769512,5.64197561 6.24976829,5.55673171 L8.81220732,0.365634146 C8.91793902,0.150146341 9.2252561,0.150146341 9.33171951,0.365634146" id="Fill-114" fill="#F3CC30" mask="url(#mask-5)"></path>
                    </g>
                    <path d="M46.0235488,10.7110244 L43.7402561,15.1330976 C43.6198902,15.3657805 43.3905,15.5201707 43.130378,15.5439512 L38.1734268,15.9961463 L43.410622,16.2412683 C43.7435488,16.2566341 44.047939,16.0550488 44.1631829,15.7426098 L46.0235488,10.7110244 Z" id="Fill-117" fill="#F7DB5E"></path>
                    <g id="Group-121" transform="translate(40.243902, 15.365854)">
                        <mask id="mask-7" fill="white">
                            <use xlink:href="#path-6"></use>
                        </mask>
                        <g id="Clip-120"></g>
                        <path d="M2.24436585,10.1675854 L0.100463415,10.8242927 C0.0602195122,11.0602683 0.308268293,11.241 0.520463415,11.1290488 L5.64387805,8.43563415 C5.72839024,8.39136585 5.82973171,8.39136585 5.91314634,8.43563415 L11.0380244,11.1290488 C11.2502195,11.241 11.4982683,11.0602683 11.4580244,10.8242927 L10.4786341,5.11843902 C10.4636341,5.02441463 10.4943659,4.92929268 10.5616829,4.86234146 L14.7079024,0.821121951 C14.8794878,0.653926829 14.7847317,0.36197561 14.5472927,0.32795122 L14.6607073,0.0495365854 C11.556439,5.61856098 6.80436585,8.5512439 2.24436585,10.1675854" id="Fill-119" fill="#EDBD31" mask="url(#mask-7)"></path>
                    </g>
                    <path d="M28.0167073,0.288109756 L32.5412195,9.45676829 C32.6162195,9.6075 32.7603659,9.71176829 32.9264634,9.73591463 L43.0445122,11.2066463 C43.4637805,11.2677439 43.6317073,11.7825 43.3280488,12.0784756 L36.0065854,19.2144512 C35.8858537,19.332622 35.8309756,19.5020122 35.8595122,19.6670122 L37.587439,29.7444512 C37.6587805,30.1618902 37.2208537,30.4798171 36.8465854,30.2829878 L27.7960976,25.525061 C27.6468293,25.4471341 27.4697561,25.4471341 27.320122,25.525061 L18.2703659,30.2829878 C17.8957317,30.4798171 17.457439,30.1618902 17.5291463,29.7444512 L19.257439,19.6670122 C19.2859756,19.5020122 19.2307317,19.332622 19.11,19.2144512 L11.7885366,12.0784756 C11.4856098,11.7825 11.6528049,11.2677439 12.0720732,11.2066463 L22.190122,9.73591463 C22.3562195,9.71176829 22.5003659,9.6075 22.575,9.45676829 L27.099878,0.288109756 C27.287561,-0.0920121951 27.8290244,-0.0920121951 28.0167073,0.288109756 Z" id="Stroke-122" stroke="#FFFFFF" stroke-width="2.23097561"></path>
                    <path d="M27.5582927,2.40534146 L23.5258537,10.2163171 C23.3140244,10.6257073 22.9086585,10.8993659 22.4491463,10.9410732 L13.6942683,11.7408293 L22.9441463,12.1729024 C23.5317073,12.2003415 24.0691463,11.8447317 24.2732927,11.2930244 L27.5582927,2.40534146 Z" id="Stroke-124" stroke="#FFFFFF" stroke-width="2.23097561"></path>
                    <path d="M17.7281341,28.5849512 L17.5291098,29.7443415 C17.4574024,30.1621463 17.8956951,30.4800732 18.2703293,30.2832439 L27.3200854,25.5253171 C27.4697195,25.4470244 27.6467927,25.4470244 27.7964268,25.5253171 L36.8465488,30.2832439 C37.2208171,30.4800732 37.6591098,30.1621463 37.5874024,29.7443415 L35.8594756,19.6676341 C35.830939,19.5019024 35.8858171,19.3325122 36.0065488,19.2147073 L43.3280122,12.0783659 C43.6316707,11.7823902 43.4637439,11.2676341 43.0444756,11.2065366 L39.6555732,10.7137317 C34.1739878,20.5508049 25.7805732,25.7301951 17.7281341,28.5849512 Z" id="Stroke-126" stroke="#FFFFFF" stroke-width="2.23097561"></path>
                    <path d="M28.0167073,0.288109756 L32.5412195,9.45676829 C32.6162195,9.6075 32.7603659,9.71176829 32.9264634,9.73591463 L43.0445122,11.2066463 C43.4637805,11.2677439 43.6317073,11.7825 43.3280488,12.0784756 L36.0065854,19.2144512 C35.8858537,19.332622 35.8309756,19.5020122 35.8595122,19.6670122 L37.587439,29.7444512 C37.6587805,30.1618902 37.2208537,30.4798171 36.8465854,30.2829878 L27.7960976,25.525061 C27.6468293,25.4471341 27.4697561,25.4471341 27.320122,25.525061 L18.2703659,30.2829878 C17.8957317,30.4798171 17.457439,30.1618902 17.5291463,29.7444512 L19.257439,19.6670122 C19.2859756,19.5020122 19.2307317,19.332622 19.11,19.2144512 L11.7885366,12.0784756 C11.4856098,11.7825 11.6528049,11.2677439 12.0720732,11.2066463 L22.190122,9.73591463 C22.3562195,9.71176829 22.5003659,9.6075 22.575,9.45676829 L27.099878,0.288109756 C27.287561,-0.0920121951 27.8290244,-0.0920121951 28.0167073,0.288109756" id="Fill-128" fill="#F3CC30"></path>
                    <path d="M27.5582927,2.40534146 L23.5258537,10.2163171 C23.3140244,10.6257073 22.9086585,10.8993659 22.4491463,10.9410732 L13.6942683,11.7408293 L22.9441463,12.1729024 C23.5317073,12.2003415 24.0691463,11.8447317 24.2732927,11.2930244 L27.5582927,2.40534146 Z" id="Fill-130" fill="#F7DB5E"></path>
                    <path d="M17.7281341,28.5849512 L17.5291098,29.7443415 C17.4574024,30.1621463 17.8956951,30.4800732 18.2703293,30.2832439 L27.3200854,25.5253171 C27.4697195,25.4470244 27.6467927,25.4470244 27.7964268,25.5253171 L36.8465488,30.2832439 C37.2208171,30.4800732 37.6591098,30.1621463 37.5874024,29.7443415 L35.8594756,19.6676341 C35.830939,19.5019024 35.8858171,19.3325122 36.0065488,19.2147073 L43.3280122,12.0783659 C43.6316707,11.7823902 43.4637439,11.2676341 43.0444756,11.2065366 L39.6555732,10.7137317 C34.1739878,20.5508049 25.7805732,25.7301951 17.7281341,28.5849512" id="Fill-132" fill="#EDBD31"></path>
                </g>
            </g>
        </g>
    </g>
</svg>