<?xml version="1.0" encoding="UTF-8"?>
<svg width="54px" height="57px" viewBox="0 0 54 57" version="1.1" xmlns="http://www.w3.org/2000/svg" xmlns:xlink="http://www.w3.org/1999/xlink">
    <!-- Generator: Sketch 63.1 (92452) - https://sketch.com -->
    <title>Simplicity</title>
    <desc>Created with Sketch.</desc>
    <defs>
        <linearGradient x1="-14.6787367%" y1="-39.1852457%" x2="113.460719%" y2="133.607539%" id="linearGradient-1">
            <stop stop-color="#FFFFFF" offset="0%"></stop>
            <stop stop-color="#D4EDFB" offset="100%"></stop>
        </linearGradient>
    </defs>
    <g id="RWD" stroke="none" stroke-width="1" fill="none" fill-rule="evenodd">
        <g id="0-0-1-Home_outlined_input-Copy" transform="translate(-24.000000, -2631.000000)">
            <g id="Simplicity" transform="translate(24.000000, 2631.000000)">
                <path d="M28.0393902,0.0841463415 C19.9690244,0.69 12.1576829,4.49414634 6.69658537,10.4553659 L6.69658537,10.4553659 C2.05756098,15.5202439 0.0102439024,22.1403659 0,28.817561 L0,28.817561 L0,28.9221951 C0.00475609756,31.9628049 0.431341463,35.0136585 1.22707317,37.9331707 L1.22707317,37.9331707 C1.56731707,39.1810976 1.9854878,40.5303659 2.49256098,41.9019512 L2.49256098,41.9019512 C3.39878049,44.5053659 4.66243902,47.0378049 6.28317073,49.4513415 L6.28317073,49.4513415 C11.2657317,56.8712195 24.8389024,60.5282927 30.4218293,51.8667073 L30.4218293,51.8667073 C32.8928049,48.0336585 32.1563415,43.1531707 32.7845122,38.867561 L32.7845122,38.867561 C33.1291463,36.519878 33.8370732,34.2771951 35.0685366,32.2441463 L35.0685366,32.2441463 C36.5795122,29.7490244 39.1353659,28.2413415 41.7029268,27.0270732 L41.7029268,27.0270732 C45.942439,25.0207317 51.1328049,24.9073171 52.9906098,19.8684146 L52.9906098,19.8684146 C54.5206098,15.7181707 51.6947561,10.8160976 49.1718293,7.72060976 L49.1718293,7.72060976 C44.7610976,2.30853659 37.1740244,0 30.2970732,0 L30.2970732,0 C29.5335366,0 28.7802439,0.0281707317 28.0393902,0.0841463415" id="Fill-10" fill="url(#linearGradient-1)"></path>
                <g id="touch" transform="translate(14.583333, 11.805556)" fill-rule="nonzero">
                    <path d="M20.0716146,10.0358073 C20.0716146,15.578342 15.5786133,20.0716146 10.0358073,20.0716146 C4.49327257,20.0716146 0,15.578342 0,10.0358073 C0,4.49327257 4.49327257,0 10.0358073,0 C15.5786133,0 20.0716146,4.49327257 20.0716146,10.0358073 Z" id="Path" fill="#C6EFFF"></path>
                    <path d="M17.2043186,10.0358073 C17.2043186,13.9949544 13.9949544,17.2043186 10.0358073,17.2043186 C6.07693139,17.2043186 2.86729597,13.9949544 2.86729597,10.0358073 C2.86729597,6.07666014 6.07693139,2.86729597 10.0358073,2.86729597 C13.9949544,2.86729597 17.2043186,6.07666014 17.2043186,10.0358073 Z" id="Path" fill="#57CEFF"></path>
                    <path d="M14.3370226,10.0358073 C14.3370226,12.4112956 12.4112956,14.3367513 10.0358073,14.3367513 C7.66059028,14.3367513 5.73486326,12.4112956 5.73486326,10.0358073 C5.73486326,7.66031903 7.66059028,5.73486326 10.0358073,5.73486326 C12.4112956,5.73486326 14.3370226,7.66031903 14.3370226,10.0358073 Z" id="Path" fill="#FFFFFF"></path>
                    <path d="M18.7858073,19.4908312 C17.9277886,19.4048394 17.2043186,20.0764974 17.2043186,20.9171549 L17.2043186,20.4329427 C17.2043186,19.6828885 16.6647678,18.999566 15.9185112,18.9246962 C15.0602214,18.8389757 14.3370226,19.5103624 14.3370226,20.35102 L14.3370226,19.8594835 C14.3370226,19.1094292 13.7974718,18.4261068 13.0512153,18.3512369 C12.1929253,18.2655165 11.4697265,18.9369032 11.4697265,19.7775608 L11.4697265,10.11773 C11.4697265,9.36794708 10.9299045,8.68435333 10.1839193,8.60975479 C9.32562931,8.52376306 8.60215931,9.19514972 8.60215931,10.0358073 L8.60215931,18.3439128 L6.70762806,20.996365 C6.10649958,21.8378364 6.00504556,22.9375542 6.44205729,23.874783 L9.37310111,30.1611328 C9.62076819,30.6925456 9.74907771,31.2714301 9.74907771,31.8576389 L9.74907771,34.4086372 C9.74907771,35.0420465 10.2628581,35.5555556 10.8962674,35.5555556 L17.2043186,35.5555556 C17.8379992,35.5555556 18.3512369,35.0420465 18.3512369,34.4086372 L18.3512369,31.8690321 C18.3512369,30.8620876 18.6751302,29.8963758 19.1921658,29.0323893 C19.7498915,28.0997722 20.0718858,27.0100911 20.0718858,25.8439128 L20.0718858,20.9988064 C20.0716146,20.2490235 19.5320638,19.5654297 18.7858073,19.4908312 L18.7858073,19.4908312 Z" id="Path" fill="#F6D190"></path>
                    <path d="M10.8959961,31.6343858 C10.8959961,30.433214 10.7025825,29.2399089 10.3225369,28.1003147 C9.94276257,26.9609917 9.74907771,25.7676867 9.74907771,24.5665147 L9.74907771,8.63064236 C9.09613715,8.76464847 8.60215931,9.34299042 8.60215931,10.0358073 L8.60215931,18.3439128 L6.70735681,20.996365 C6.10649958,21.8378364 6.00504556,22.9375542 6.44205729,23.874783 L9.37310111,30.1614041 C9.62076819,30.6925456 9.74907771,31.2717014 9.74907771,31.8576389 L9.74907771,34.4086372 C9.74907771,35.0420465 10.2628581,35.5555556 10.8962674,35.5555556 L17.2043186,35.5555556 C17.8377278,35.5555556 18.3512369,35.0420465 18.3512369,34.4086372 L13.6705187,34.4086372 C12.1381293,34.4086372 10.8959961,33.1665039 10.8959961,31.6343858 L10.8959961,31.6343858 Z" id="Path" fill="#ECBD83"></path>
                    <path d="M8.02870007,22.3657226 C8.34554035,22.3657226 8.60215931,22.1088325 8.60215931,21.7922635 L8.60215931,18.3439128 L7.4552409,19.9495443 L7.4552409,21.7919922 C7.4552409,22.1088325 7.71185979,22.3657226 8.02870007,22.3657226 L8.02870007,22.3657226 Z" id="Path" fill="#E2A975"></path>
                    <g id="Group" transform="translate(11.458333, 18.333333)" fill="#ECBD83">
                        <path d="M6.89290361,3.45865889 L6.89290361,1.17892792 C6.23996313,1.31266278 5.74598528,1.89100479 5.74598528,2.58355035 L5.74598528,3.45865889 C5.74598528,3.77549917 6.00287542,4.03211827 6.31944444,4.03211827 C6.63628472,4.03238931 6.89290361,3.77549917 6.89290361,3.45865889 Z" id="Path"></path>
                        <path d="M3.45214847,3.45865889 C3.76898875,3.45865889 4.02560764,3.20203993 4.02560764,2.88519965 L4.02560764,0.612521667 C3.37266708,0.746256528 2.87868924,1.32486979 2.87868924,2.01768667 L2.87868924,2.88519965 C2.87868924,3.20203993 3.13530819,3.45865889 3.45214847,3.45865889 Z" id="Path"></path>
                        <path d="M0.584581181,2.88519965 C0.901421458,2.88519965 1.15804035,2.62858069 1.15804035,2.31174042 L1.15804035,0.0390625 C0.505099861,0.173068611 0.0111219444,0.751410556 0.0111219444,1.44422743 L0.0111219444,2.31174042 C0.0111219444,2.62858069 0.268012153,2.88519965 0.584581181,2.88519965 Z" id="Path"></path>
                    </g>
                </g>
            </g>
        </g>
    </g>
</svg>