<?xml version="1.0" encoding="UTF-8"?>
<svg width="54px" height="57px" viewBox="0 0 54 57" version="1.1" xmlns="http://www.w3.org/2000/svg" xmlns:xlink="http://www.w3.org/1999/xlink">
    <!-- Generator: Sketch 63.1 (92452) - https://sketch.com -->
    <title>Favoritecleaner</title>
    <desc>Created with Sketch.</desc>
    <defs>
        <linearGradient x1="-14.6787367%" y1="-39.1852457%" x2="113.460719%" y2="133.607539%" id="linearGradient-1">
            <stop stop-color="#FFFFFF" offset="0%"></stop>
            <stop stop-color="#D4EDFB" offset="100%"></stop>
        </linearGradient>
    </defs>
    <g id="RWD" stroke="none" stroke-width="1" fill="none" fill-rule="evenodd">
        <g id="0-0-1-Home_outlined_input-Copy" transform="translate(-24.000000, -2202.000000)">
            <g id="Favoritecleaner" transform="translate(24.000000, 2202.000000)">
                <path d="M28.0393902,0.0841463415 C19.9690244,0.69 12.1576829,4.49414634 6.69658537,10.4553659 L6.69658537,10.4553659 C2.05756098,15.5202439 0.0102439024,22.1403659 0,28.817561 L0,28.817561 L0,28.9221951 C0.00475609756,31.9628049 0.431341463,35.0136585 1.22707317,37.9331707 L1.22707317,37.9331707 C1.56731707,39.1810976 1.9854878,40.5303659 2.49256098,41.9019512 L2.49256098,41.9019512 C3.39878049,44.5053659 4.66243902,47.0378049 6.28317073,49.4513415 L6.28317073,49.4513415 C11.2657317,56.8712195 24.8389024,60.5282927 30.4218293,51.8667073 L30.4218293,51.8667073 C32.8928049,48.0336585 32.1563415,43.1531707 32.7845122,38.867561 L32.7845122,38.867561 C33.1291463,36.519878 33.8370732,34.2771951 35.0685366,32.2441463 L35.0685366,32.2441463 C36.5795122,29.7490244 39.1353659,28.2413415 41.7029268,27.0270732 L41.7029268,27.0270732 C45.942439,25.0207317 51.1328049,24.9073171 52.9906098,19.8684146 L52.9906098,19.8684146 C54.5206098,15.7181707 51.6947561,10.8160976 49.1718293,7.72060976 L49.1718293,7.72060976 C44.7610976,2.30853659 37.1740244,0 30.2970732,0 L30.2970732,0 C29.5335366,0 28.7802439,0.0281707317 28.0393902,0.0841463415" id="Fill-10" fill="url(#linearGradient-1)"></path>
                <g id="high-five" transform="translate(9.722222, 11.805556)" fill-rule="nonzero">
                    <path d="M17.7777778,6.58094618 C17.2024197,6.58094618 16.7361111,6.11463757 16.7361111,5.53927951 L16.7361111,1.07638889 C16.7361111,0.501030833 17.2024197,0.0347222222 17.7777778,0.0347222222 C18.3531358,0.0347222222 18.8194444,0.501030833 18.8194444,1.07638889 L18.8194444,5.53927951 C18.8194444,6.11463757 18.3531358,6.58094618 17.7777778,6.58094618 Z" id="Path" fill="#FFF36E"></path>
                    <path d="M13.3148872,7.69694014 C13.0482313,7.69694014 12.7815756,7.59521486 12.5783962,7.39176431 L10.3466797,5.16031903 C9.94004993,4.75341799 9.94004993,4.09396701 10.3466797,3.68706597 C10.7535807,3.28016493 11.4130317,3.28016493 11.8199327,3.68706597 L14.0513781,5.91851125 C14.4582791,6.32541236 14.4582791,6.98486326 14.0513781,7.39176431 C13.8479275,7.59494361 13.5812717,7.69694014 13.3148872,7.69694014 Z" id="Path" fill="#FFF36E"></path>
                    <path d="M22.2406684,7.69694014 C21.9742839,7.69694014 21.7076281,7.59521486 21.5041775,7.39176431 C21.0975478,6.98486326 21.0975478,6.32541236 21.5041775,5.91851125 L23.7358941,3.68706597 C24.1425239,3.28043618 24.8019749,3.28016493 25.2088758,3.68706597 C25.6157769,4.09396701 25.6157769,4.75341799 25.2088758,5.16031903 L22.9774306,7.39176431 C22.77398,7.59494361 22.5073242,7.69694014 22.2406684,7.69694014 Z" id="Path" fill="#FFCC01"></path>
                    <path d="M17.7777778,9.98806424 C16.4203559,9.02018229 15.1000976,9.8098416 14.7330729,10.1242404 L10.2297635,13.9841037 C9.81228299,14.3421767 9.27924264,14.5393881 8.72938368,14.5393881 L5.50347222,14.5393881 C2.46365014,14.5393881 0,16.9986979 0,20.0428603 L0,30.0857205 C0,30.6608073 0.466308611,31.1273872 1.04166667,31.1273872 L9.96744792,31.1273872 C10.542806,31.1273872 11.0091146,30.6608073 11.0091146,30.0857205 L11.0091146,20.5230035 L17.7777778,14.7214084 L17.7777778,9.98806424 Z" id="Path" fill="#007BAD"></path>
                    <path d="M17.7777778,9.98806424 C19.1351997,9.02018229 20.4554579,9.8098416 20.8224826,10.1242404 L25.3257921,13.9841037 C25.7432726,14.3421767 26.2763129,14.5393881 26.8261719,14.5393881 L30.0520833,14.5393881 C33.0919054,14.5393881 35.5555556,16.9986979 35.5555556,20.0428603 L35.5555556,30.0857205 C35.5555556,30.6608073 35.0892469,31.1273872 34.5138889,31.1273872 L25.5881076,31.1273872 C25.0127496,31.1273872 24.546441,30.6608073 24.546441,30.0857205 L24.546441,20.5230035 L17.7777778,14.7214084 L17.7777778,9.98806424 Z" id="Path" fill="#0051BD"></path>
                    <path d="M5.50455729,14.5393881 C3.08458118,14.5393881 1.11572264,12.5705295 1.11572264,10.1505534 C1.11572264,7.73057722 3.08458118,5.76171875 5.50455729,5.76171875 C7.92480472,5.76171875 9.89366319,7.73057722 9.89366319,10.1505534 C9.89366319,12.5705295 7.9245334,14.5393881 5.50455729,14.5393881 Z" id="Path" fill="#FFECE3"></path>
                    <path d="M5.50455729,5.76171875 L5.50455729,14.5393881 C7.9245334,14.5393881 9.89366319,12.5705295 9.89366319,10.1505534 C9.89366319,7.73057722 7.9245334,5.76171875 5.50455729,5.76171875 Z" id="Path" fill="#FFDCCD"></path>
                    <path d="M30.0509983,14.5393881 C27.6310222,14.5393881 25.6621636,12.5705295 25.6621636,10.1505534 C25.6621636,7.73057722 27.6310222,5.76171875 30.0509983,5.76171875 C32.4709744,5.76171875 34.4398329,7.73057722 34.4398329,10.1505534 C34.4398329,12.5705295 32.4709744,14.5393881 30.0509983,14.5393881 Z" id="Path" fill="#E8AFA3"></path>
                    <path d="M30.0509983,5.76171875 L30.0509983,14.5393881 C32.4709744,14.5393881 34.4398329,12.5705295 34.4398329,10.1505534 C34.4398329,7.73057722 32.4709744,5.76171875 30.0509983,5.76171875 Z" id="Path" fill="#D19188"></path>
                    <path d="M14.7330729,10.1242404 L10.2297635,13.984375 C9.81228299,14.3421767 9.27924264,14.5393881 8.72938368,14.5393881 L5.50455729,14.5393881 L5.50455729,31.1273872 L9.96771917,31.1273872 C10.542806,31.1273872 11.0093858,30.6610785 11.0093858,30.0857205 L11.0093858,20.5230035 L17.7777778,14.7214084 L17.7777778,9.98806424 C16.4203559,9.02018229 15.1000976,9.8098416 14.7330729,10.1242404 Z" id="Path" fill="#14BBFF"></path>
                    <path d="M30.0520833,14.5393881 L30.0509983,14.5393881 L30.0509983,31.1273872 L34.5138889,31.1273872 C35.0892469,31.1273872 35.5555556,30.6610785 35.5555556,30.0857205 L35.5555556,20.0428603 C35.5555556,16.9986979 33.0919054,14.5393881 30.0520833,14.5393881 Z" id="Path" fill="#00347B"></path>
                    <path d="M18.8194444,5.53927951 L18.8194444,1.07638889 C18.8194444,0.501030833 18.3531358,0.0347222222 17.7777778,0.0347222222 L17.7777778,6.58094618 C18.3531358,6.58094618 18.8194444,6.11463757 18.8194444,5.53927951 Z" id="Path" fill="#FFCC01"></path>
                </g>
            </g>
        </g>
    </g>
</svg>