<?xml version="1.0" encoding="UTF-8"?>
<svg width="54px" height="57px" viewBox="0 0 54 57" version="1.1" xmlns="http://www.w3.org/2000/svg" xmlns:xlink="http://www.w3.org/1999/xlink">
    <!-- Generator: Sketch 63.1 (92452) - https://sketch.com -->
    <title>Flexibility</title>
    <desc>Created with Sketch.</desc>
    <defs>
        <linearGradient x1="-14.6787367%" y1="-39.1852457%" x2="113.460719%" y2="133.607539%" id="linearGradient-1">
            <stop stop-color="#FFFFFF" offset="0%"></stop>
            <stop stop-color="#D4EDFB" offset="100%"></stop>
        </linearGradient>
    </defs>
    <g id="RWD" stroke="none" stroke-width="1" fill="none" fill-rule="evenodd">
        <g id="0-0-1-Home_outlined_input-Copy" transform="translate(-24.000000, -2338.000000)">
            <g id="Flexibility" transform="translate(24.000000, 2338.000000)">
                <path d="M28.0393902,0.0841463415 C19.9690244,0.69 12.1576829,4.49414634 6.69658537,10.4553659 L6.69658537,10.4553659 C2.05756098,15.5202439 0.0102439024,22.1403659 0,28.817561 L0,28.817561 L0,28.9221951 C0.00475609756,31.9628049 0.431341463,35.0136585 1.22707317,37.9331707 L1.22707317,37.9331707 C1.56731707,39.1810976 1.9854878,40.5303659 2.49256098,41.9019512 L2.49256098,41.9019512 C3.39878049,44.5053659 4.66243902,47.0378049 6.28317073,49.4513415 L6.28317073,49.4513415 C11.2657317,56.8712195 24.8389024,60.5282927 30.4218293,51.8667073 L30.4218293,51.8667073 C32.8928049,48.0336585 32.1563415,43.1531707 32.7845122,38.867561 L32.7845122,38.867561 C33.1291463,36.519878 33.8370732,34.2771951 35.0685366,32.2441463 L35.0685366,32.2441463 C36.5795122,29.7490244 39.1353659,28.2413415 41.7029268,27.0270732 L41.7029268,27.0270732 C45.942439,25.0207317 51.1328049,24.9073171 52.9906098,19.8684146 L52.9906098,19.8684146 C54.5206098,15.7181707 51.6947561,10.8160976 49.1718293,7.72060976 L49.1718293,7.72060976 C44.7610976,2.30853659 37.1740244,0 30.2970732,0 L30.2970732,0 C29.5335366,0 28.7802439,0.0281707317 28.0393902,0.0841463415" id="Fill-10" fill="url(#linearGradient-1)"></path>
                <g id="calendar-(1)" transform="translate(14.583333, 15.972222)" fill-rule="nonzero">
                    <polygon id="Path" fill="#FFEB99" points="0 7.11120604 26.6666667 7.11120604 26.6666667 26.6666667 0 26.6666667"></polygon>
                    <path d="M24.888916,1.77775063 L20.4445394,1.77775063 L20.4445394,0.888875313 C20.4445394,0.397949219 20.0463867,0 19.5554606,0 L17.7777099,0 C17.2867839,0 16.8888346,0.397949219 16.8888346,0.888875313 L16.8888346,1.77775063 L9.77783203,1.77775063 L9.77783203,0.888875313 C9.77783203,0.397949219 9.37988281,0 8.88895672,0 L7.11120604,0 C6.62027995,0 6.22212729,0.397949219 6.22212729,0.888875313 L6.22212729,1.77775063 L1.77775063,1.77775063 C0.797119167,1.78059896 0.00284830729,2.57486979 0,3.5555013 L0,7.11120604 L26.6666667,7.11120604 L26.6666667,3.5555013 C26.6638183,2.57486979 25.8695475,1.78059896 24.888916,1.77775063 Z" id="Path" fill="#FF9478"></path>
                    <g id="Group" transform="translate(4.427083, 11.510417)" fill="#FFC477">
                        <path d="M0.906168646,0.0451660417 L2.68391927,0.0451660417 C3.17484536,0.0451660417 3.57279458,0.443115208 3.57279458,0.934041354 L3.57279458,2.71179198 C3.57279458,3.20271813 3.17484536,3.60066729 2.68391927,3.60066729 L0.906168646,3.60066729 C0.4152425,3.60066729 0.0172932813,3.20271813 0.0172932813,2.71179198 L0.0172932813,0.934041354 C0.0172932813,0.443115208 0.4152425,0.0451660417 0.906168646,0.0451660417 L0.906168646,0.0451660417 Z" id="Path"></path>
                        <path d="M8.01737469,0.0451660417 L9.79512531,0.0451660417 C10.2860515,0.0451660417 10.6840006,0.443115208 10.6840006,0.934041354 L10.6840006,2.71179198 C10.6840006,3.20271813 10.2860515,3.60066729 9.79512531,3.60066729 L8.01737469,3.60066729 C7.52644854,3.60066729 7.12849937,3.20271813 7.12849937,2.71179198 L7.12849937,0.934041354 C7.12849937,0.443115208 7.52644854,0.0451660417 8.01737469,0.0451660417 L8.01737469,0.0451660417 Z" id="Path"></path>
                        <path d="M0.906168646,7.15616865 L2.68391927,7.15616865 C3.17484536,7.15616865 3.57279458,7.55411781 3.57279458,8.04504396 L3.57279458,9.82279458 C3.57279458,10.3139242 3.17484536,10.7118734 2.68391927,10.7118734 L0.906168646,10.7118734 C0.4152425,10.7118734 0.0172932813,10.3139242 0.0172932813,9.82279458 L0.0172932813,8.04504396 C0.0172932813,7.55411781 0.4152425,7.15616865 0.906168646,7.15616865 L0.906168646,7.15616865 Z" id="Path"></path>
                    </g>
                    <path d="M7.11120604,0 L8.88895672,0 C9.37988281,0 9.77783203,0.397949219 9.77783203,0.888875312 L9.77783203,3.5555013 L6.22212729,3.5555013 L6.22212729,0.888875312 C6.22212729,0.397949219 6.62027995,0 7.11120604,0 Z" id="Path" fill="#FF7956"></path>
                    <path d="M17.7777099,0 L19.5554606,0 C20.0463867,0 20.4443359,0.397949219 20.4443359,0.888875312 L20.4443359,3.5555013 L16.8888346,3.5555013 L16.8888346,0.888875312 C16.8888346,0.397949219 17.2867839,0 17.7777099,0 L17.7777099,0 Z" id="Path" fill="#FF7956"></path>
                    <path d="M12.444458,18.6665853 L13.3333333,18.6665853 C13.8242594,18.6665853 14.2222086,19.0645345 14.2222086,19.5554606 L14.2222086,21.3332113 C14.2222086,21.8243408 13.8242594,22.2222901 13.3333333,22.2222901 L12.444458,22.2222901 C11.9535319,22.2222901 11.5555827,21.8243408 11.5555827,21.3332113 L11.5555827,19.5554606 C11.5555827,19.0645345 11.9535319,18.6665853 12.444458,18.6665853 L12.444458,18.6665853 Z" id="Path" fill="#FFC477"></path>
                    <path d="M19.5554606,11.5555827 L21.3332112,11.5555827 C21.8243408,11.5555827 22.2222901,11.9535319 22.2222901,12.444458 L22.2222901,13.3333333 C22.2222901,13.8242594 21.8243408,14.2222086 21.3332112,14.2222086 L19.5554606,14.2222086 C19.0645345,14.2222086 18.6665853,13.8242594 18.6665853,13.3333333 L18.6665853,12.444458 C18.6665853,11.9535319 19.0645345,11.5555827 19.5554606,11.5555827 L19.5554606,11.5555827 Z" id="Path" fill="#FFC477"></path>
                    <polygon id="Path" fill="#FFDE55" points="0 7.11120604 26.6666667 7.11120604 26.6666667 8.00008135 0 8.00008135"></polygon>
                    <path d="M24.888916,15.8896891 C24.0384928,15.398763 22.9512532,15.6901042 22.4603271,16.5403239 L21.5714518,18.0800374 L24.6506755,19.8577881 L25.5395508,18.3180745 C26.0304769,17.4678548 25.7391357,16.3806152 24.888916,15.8896891 Z" id="Path" fill="#FF9811"></path>
                    <polygon id="Path" fill="#00DDC2" points="18.4598796 23.4692383 21.5710449 18.0808512 24.6500651 19.8586019 21.5388997 25.246989"></polygon>
                    <polygon id="Path" fill="#57565C" points="18.6665853 26.6666667 21.5395101 25.2461751 18.4604899 23.4684245"></polygon>
                </g>
            </g>
        </g>
    </g>
</svg>