<?xml version="1.0" encoding="UTF-8"?>
<svg width="54px" height="58px" viewBox="0 0 54 58" version="1.1" xmlns="http://www.w3.org/2000/svg" xmlns:xlink="http://www.w3.org/1999/xlink">
    <!-- Generator: Sketch 63.1 (92452) - https://sketch.com -->
    <title>convenience</title>
    <desc>Created with Sketch.</desc>
    <defs>
        <path d="M28.0393902,0.259390244 C19.9690244,0.865243902 12.1576829,4.66939024 6.69658537,10.6306098 L6.69658537,10.6306098 C2.05756098,15.6954878 0.0102439024,22.3156098 0,28.9928049 L0,28.9928049 L0,29.097439 C0.00475609756,32.1380488 0.431341463,35.1889024 1.22707317,38.1084146 L1.22707317,38.1084146 C1.56731707,39.3563415 1.9854878,40.7056098 2.49256098,42.0771951 L2.49256098,42.0771951 C3.39878049,44.6806098 4.66243902,47.2130488 6.28317073,49.6265854 L6.28317073,49.6265854 C11.2657317,57.0464634 24.8389024,60.7035366 30.4218293,52.0419512 L30.4218293,52.0419512 C32.8928049,48.2089024 32.1563415,43.3284146 32.7845122,39.0428049 L32.7845122,39.0428049 C33.1291463,36.695122 33.8370732,34.452439 35.0685366,32.4193902 L35.0685366,32.4193902 C36.5795122,29.9242683 39.1353659,28.4165854 41.7029268,27.2023171 L41.7029268,27.2023171 C45.942439,25.1959756 51.1328049,25.082561 52.9906098,20.0436585 L52.9906098,20.0436585 C54.5206098,15.8934146 51.6947561,10.9913415 49.1718293,7.89585366 L49.1718293,7.89585366 C44.7610976,2.48378049 37.1740244,0.175243902 30.2970732,0.175243902 L30.2970732,0.175243902 C29.5335366,0.175243902 28.7802439,0.203414634 28.0393902,0.259390244" id="path-1"></path>
        <linearGradient x1="-14.6787367%" y1="-39.1852457%" x2="113.460719%" y2="133.607539%" id="linearGradient-3">
            <stop stop-color="#FFFFFF" offset="0%"></stop>
            <stop stop-color="#D4EDFB" offset="100%"></stop>
        </linearGradient>
    </defs>
    <g id="RWD" stroke="none" stroke-width="1" fill="none" fill-rule="evenodd">
        <g id="0-0-1-Home_outlined_input-Copy" transform="translate(-24.000000, -2746.000000)">
            <g id="convenience" transform="translate(24.000000, 2746.000000)">
                <g id="Group-12">
                    <mask id="mask-2" fill="white">
                        <use xlink:href="#path-1"></use>
                    </mask>
                    <g id="Clip-11"></g>
                    <path d="M28.0393902,0.259390244 C19.9690244,0.865243902 12.1576829,4.66939024 6.69658537,10.6306098 L6.69658537,10.6306098 C2.05756098,15.6954878 0.0102439024,22.3156098 0,28.9928049 L0,28.9928049 L0,29.097439 C0.00475609756,32.1380488 0.431341463,35.1889024 1.22707317,38.1084146 L1.22707317,38.1084146 C1.56731707,39.3563415 1.9854878,40.7056098 2.49256098,42.0771951 L2.49256098,42.0771951 C3.39878049,44.6806098 4.66243902,47.2130488 6.28317073,49.6265854 L6.28317073,49.6265854 C11.2657317,57.0464634 24.8389024,60.7035366 30.4218293,52.0419512 L30.4218293,52.0419512 C32.8928049,48.2089024 32.1563415,43.3284146 32.7845122,39.0428049 L32.7845122,39.0428049 C33.1291463,36.695122 33.8370732,34.452439 35.0685366,32.4193902 L35.0685366,32.4193902 C36.5795122,29.9242683 39.1353659,28.4165854 41.7029268,27.2023171 L41.7029268,27.2023171 C45.942439,25.1959756 51.1328049,25.082561 52.9906098,20.0436585 L52.9906098,20.0436585 C54.5206098,15.8934146 51.6947561,10.9913415 49.1718293,7.89585366 L49.1718293,7.89585366 C44.7610976,2.48378049 37.1740244,0.175243902 30.2970732,0.175243902 L30.2970732,0.175243902 C29.5335366,0.175243902 28.7802439,0.203414634 28.0393902,0.259390244" id="Fill-10" fill="url(#linearGradient-3)" mask="url(#mask-2)"></path>
                </g>
                <g id="Group-108" transform="translate(4.834646, 6.437524)">
                    <path d="M31.2322683,1.6224878 C31.0175122,1.49407317 30.8371463,1.32687805 30.6951951,1.13480488 L8.46336585,1.13480488 C8.03202439,1.48419512 7.61165854,1.85078049 7.20739024,2.25029268 C6.9425122,2.5115122 6.65568293,2.66736585 6.36629268,2.73870732 L6.36629268,40.8109024 L32.1589756,40.8109024 L32.1589756,2.07907317 C31.8417805,1.94480488 31.5293415,1.79992683 31.2322683,1.6224878" id="Fill-13" fill="#FFFFFF"></path>
                    <path d="M7.34458537,40.8109756 L7.34458537,4.26512195 C7.34458537,2.69707317 8.62031707,1.42170732 10.188,1.42170732 L29.2101951,1.42170732 C30.777878,1.42170732 32.0532439,2.69707317 32.0532439,4.26512195 L32.0532439,40.8109756 L33.4753171,40.8109756 L33.4753171,4.26512195 C33.4753171,1.91341463 31.5615366,-7.79863978e-15 29.2101951,-7.79863978e-15 L10.188,-7.79863978e-15 C7.83629268,-7.79863978e-15 5.92287805,1.91341463 5.92287805,4.26512195 L5.92287805,40.8109756 L7.34458537,40.8109756 Z" id="Fill-15" fill="#039BDE"></path>
                    <path d="M28.5226463,2.23876829 C28.5226463,2.9199878 27.9650854,3.47791463 27.2831341,3.47791463 L12.1144756,3.47791463 C11.4332561,3.47791463 10.8756951,2.9199878 10.8756951,2.23876829 L10.8756951,1.49791463 C10.8756951,0.815963415 11.4332561,0.258402439 12.1144756,0.258402439 L27.2831341,0.258402439 C27.9650854,0.258402439 28.5226463,0.815963415 28.5226463,1.49791463 L28.5226463,2.23876829 Z" id="Fill-17" fill="#039BDE"></path>
                    <path d="M30.8146098,29.7417439 C30.8146098,30.1723537 26.0570488,30.521378 20.1887561,30.521378 C14.3208293,30.521378 9.56290244,30.1723537 9.56290244,29.7417439 C9.56290244,29.3111341 14.3208293,28.9617439 20.1887561,28.9617439 C26.0570488,28.9617439 30.8146098,29.3111341 30.8146098,29.7417439" id="Fill-19" fill="#ABD1E6"></path>
                    <path d="M21.7865122,28.9407439 C21.7616341,29.3351341 21.4173659,29.6578171 21.0222439,29.6578171 L13.1285854,29.6578171 C12.7334634,29.6578171 12.3891951,29.3351341 12.3643171,28.9407439 L11.747122,19.1991585 C11.721878,18.8047683 12.0248049,18.4820854 12.4199268,18.4820854 L21.7309024,18.4820854 C22.1260244,18.4820854 22.4289512,18.8047683 22.4037073,19.1991585 L21.7865122,28.9407439 Z" id="Fill-21" fill="#F6AC32"></path>
                    <path d="M21.023378,18.482122 C20.6282561,18.482122 20.3044756,18.8055366 20.3044756,19.2006585 L20.3044756,28.9393171 C20.3044756,29.334439 20.6278902,29.6578537 21.0226463,29.6578537 C21.4177683,29.6578537 21.7616707,29.3351707 21.7865488,28.9407805 L22.4037439,19.1991951 C22.4289878,18.8048049 22.126061,18.482122 21.730939,18.482122 L21.023378,18.482122 Z" id="Fill-23" fill="#DF9D2F"></path>
                    <path d="M12.2743171,27.5145 L12.3646829,28.9292561 C12.3646829,29.3302317 12.7287073,29.6576707 13.1187073,29.6576707 L21.0317561,29.6576707 C21.422122,29.6576707 21.786878,29.3302317 21.786878,28.9292561 L21.876878,27.5145 L12.2743171,27.5145 Z" id="Fill-25" fill="#E9672C"></path>
                    <path d="M20.975122,29.6578171 L21.0318293,29.6578171 C21.4221951,29.6578171 21.7869512,29.3300122 21.7869512,28.9294024 L21.8769512,27.5146463 L20.2810976,27.5146463 L20.2810976,28.8946463 C20.4332927,29.2663537 20.6630488,29.4983049 20.975122,29.6578171" id="Fill-27" fill="#DA622B"></path>
                    <path d="M24.4171463,18.3424024 C24.5111707,18.7532561 24.243,19.0891098 23.8219024,19.0891098 L10.3288537,19.0891098 C9.9077561,19.0891098 9.63958537,18.7532561 9.73360976,18.3424024 L9.79470732,18.0749634 C9.88873171,17.6641098 10.3098293,17.3278902 10.7312927,17.3278902 L23.4190976,17.3278902 C23.840561,17.3278902 24.2616585,17.6641098 24.3560488,18.0745976 L24.4171463,18.3424024 Z" id="Fill-29" fill="#FEC20F"></path>
                    <path d="M24.4171463,18.3424024 L24.3560488,18.0745976 C24.2616585,17.6641098 23.840561,17.3278902 23.4190976,17.3278902 L20.3045854,17.3278902 L20.3045854,19.0891098 L23.8219024,19.0891098 C24.243,19.0891098 24.5111707,18.7532561 24.4171463,18.3424024" id="Fill-31" fill="#E5B230"></path>
                    <path d="M12.3447073,23.3493293 C11.8321463,23.3493293 11.3488537,23.1492073 10.9837317,22.7855488 C10.6164146,22.4196951 10.4148293,21.9345732 10.4148293,21.4187195 L10.4148293,19.0889634 L11.1871463,19.0889634 L11.1871463,21.4187195 C11.1871463,21.7275 11.3082439,22.0187195 11.5288537,22.2382317 C11.748,22.4570122 12.0377561,22.5770122 12.3450732,22.5770122 L12.3494634,22.5770122 L21.8627561,22.5448171 C22.5051951,22.542622 23.0276341,22.0179878 23.0276341,21.3759146 L23.0276341,19.0889634 L23.8003171,19.0889634 L23.8003171,21.3759146 C23.8003171,22.442378 22.9317805,23.3131098 21.8653171,23.3171341 L12.3520244,23.3493293 L12.3447073,23.3493293 Z" id="Fill-33" fill="#3C4C4E"></path>
                    <path d="M19.6992805,23.7433902 L19.6985488,23.7433902 L14.1705,23.736439 C13.7420854,23.7360732 13.395622,23.3885122 13.3959875,22.9608293 C13.3967195,22.5327805 13.7435488,22.1866829 14.1712317,22.1866829 L14.1719634,22.1866829 L19.7000122,22.1936341 C20.128061,22.1943659 20.4745244,22.541561 20.4741588,22.9692439 C20.4734268,23.3972927 20.1265976,23.7433902 19.6992805,23.7433902" id="Fill-35" fill="#E9672C"></path>
                    <path d="M22.6865122,17.3277439 C22.6865122,17.3277439 22.6027317,15.8694512 21.1239512,15.8284756 C20.9128537,15.8233537 20.729561,15.8687195 20.5609024,15.927622 C20.6051707,15.0759146 20.0827317,14.1887195 18.9826098,14.1887195 C18.6738293,14.1887195 18.4159024,14.2640854 18.1978537,14.3840854 C18.0043171,13.7972561 17.5082195,13.3231098 16.704439,13.3231098 C15.8413902,13.3231098 15.3361463,13.8715244 15.1777317,14.5187195 C15.1389512,14.5161585 15.104561,14.5077439 15.0643171,14.5077439 C14.2199268,14.5077439 13.7187073,15.032378 13.5482195,15.6605488 C13.4117561,15.6254268 13.266878,15.6009146 13.1059024,15.6009146 C12.0109024,15.6009146 11.4848049,16.4796951 11.5228537,17.3277439 C11.8817561,17.3244512 22.6865122,17.3277439 22.6865122,17.3277439" id="Fill-37" fill="#ABE3FD"></path>
                    <path d="M20.8993902,17.327378 C21.9684146,17.3277439 22.6865854,17.3277439 22.6865854,17.3277439 C22.6865854,17.3277439 22.602439,15.8694512 21.1236585,15.8284756 C21.0446341,15.8266463 20.9710976,15.8335976 20.8993902,15.8434756 L20.8993902,17.327378 Z" id="Fill-39" fill="#71C0EB"></path>
                    <path d="M24.7280122,17.7797195 C24.7280122,18.0102073 24.5395976,18.198622 24.3087439,18.198622 L22.4516707,18.198622 C22.2211829,18.198622 22.0331341,18.0102073 22.0331341,17.7797195 L22.0331341,17.0674024 C22.0331341,16.8369146 22.2211829,16.6485 22.4516707,16.6485 L24.3087439,16.6485 C24.5395976,16.6485 24.7280122,16.8369146 24.7280122,17.0674024 L24.7280122,17.7797195 Z" id="Fill-41" fill="#3C4C4E"></path>
                    <path d="M26.5000976,22.6862195 C26.2710732,22.3554878 25.5422927,21.1189024 25.3268049,20.6864634 C24.9657073,19.9639024 26.0405854,19.4937805 26.5224146,20.1980488 C26.8077805,20.6154878 27.4044878,21.5462195 27.8537561,22.2786585 C28.0908293,22.6642683 28.1844878,23.0853659 27.6554634,23.2964634 C27.1436341,23.5009756 26.7905854,23.1058537 26.5000976,22.6862195 M28.6213171,26.0956098 C28.3161951,25.6492683 28.2148537,25.4707317 27.8222927,24.8956098 C27.6430244,24.6332927 27.6148537,24.279878 27.8460732,24.129878 C28.031561,24.0087805 28.3121707,23.837561 28.4153415,23.7995122 C29.4481463,23.4117073 28.9802195,22.4136585 28.4808293,21.7031707 L27.5230244,20.1643902 C27.126439,19.5504878 26.5926585,19.0207317 25.9699756,19.0159756 C25.6129024,19.0130488 25.281439,18.9702439 25.2744878,18.5337805 C25.2697317,18.2056098 25.158878,17.997439 24.3646098,17.997439 L22.0330244,17.997439 C21.3550976,17.997439 21.1132683,18.272561 21.1132683,18.842561 L21.1132683,28.6657317 C21.1132683,29.3740244 21.7630244,29.9539024 22.5576585,29.9539024 L27.7472927,29.9539024 C28.5411951,29.9539024 29.1913171,29.3740244 29.1913171,28.6657317 L29.1949756,28.6423171 L29.1949756,27.8403659 C29.1719268,27.1741463 29.1613171,26.8873171 28.6213171,26.0956098" id="Fill-43" fill="#42B9A4"></path>
                    <path d="M23.0848537,20.4389268 C23.0848537,20.4389268 22.7724146,20.430878 22.5920488,20.4389268 C21.9869268,20.4663659 21.9444878,20.7041707 21.9444878,21.338561 L21.9444878,28.043561 C21.9444878,28.5480732 22.4076585,28.9618537 22.974,28.9618537 L27.1875366,28.9618537 C27.753878,28.9618537 28.2166829,28.6918537 28.2166829,28.361122 C28.2166829,28.1463659 28.2027805,27.7936829 28.1811951,27.443561 C28.1687561,27.2547805 28.1402195,26.901 27.8724146,26.5925854 C27.351439,25.9922195 25.0374146,22.286122 24.0309512,21.0930732 C23.7035122,20.7041707 23.5359512,20.4349024 23.0848537,20.4389268" id="Fill-45" fill="#EBF7F5"></path>
                    <path d="M14.171122,11.783122 C14.171122,12.4650732 13.6183171,13.017878 12.936,13.017878 C12.2544146,13.017878 11.7012439,12.4650732 11.7012439,11.783122 C11.7012439,11.1011707 12.2544146,10.548 12.936,10.548 C13.6183171,10.548 14.171122,11.1011707 14.171122,11.783122" id="Fill-47" fill="#D5EEFB"></path>
                    <path d="M22.0330244,12.2611829 C22.0330244,12.6793537 21.6946098,13.0177683 21.276439,13.0177683 C20.8582683,13.0177683 20.5198537,12.6793537 20.5198537,12.2611829 C20.5198537,11.843378 20.8582683,11.5049634 21.276439,11.5049634 C21.6946098,11.5049634 22.0330244,11.843378 22.0330244,12.2611829" id="Fill-49" fill="#D5EEFB"></path>
                    <path d="M28.6848659,36.7812439 C28.6848659,37.4368537 28.1488902,37.9728293 27.4932805,37.9728293 L11.9049878,37.9728293 C11.249378,37.9728293 10.7134024,37.4368537 10.7134024,36.7812439 L10.7134024,34.8575854 C10.7134024,34.2023415 11.249378,33.6663659 11.9049878,33.6663659 L27.4932805,33.6663659 C28.1488902,33.6663659 28.6848659,34.2023415 28.6848659,34.8575854 L28.6848659,36.7812439 Z" id="Fill-51" fill="#4ED9D3"></path>
                    <path d="M38.0637805,40.5726585 L-4.67918387e-13,40.5726585 C-4.67918387e-13,40.5726585 8.86902439,41.6318049 18.9431707,41.6318049 C30.1412195,41.6318049 38.0637805,40.5726585 38.0637805,40.5726585" id="Fill-53" fill="#039BDE"></path>
                </g>
            </g>
        </g>
    </g>
</svg>