<?xml version="1.0" encoding="UTF-8"?>
<svg width="54px" height="58px" viewBox="0 0 54 58" version="1.1" xmlns="http://www.w3.org/2000/svg" xmlns:xlink="http://www.w3.org/1999/xlink">
    <!-- Generator: Sketch 63.1 (92452) - https://sketch.com -->
    <title>trustedandcertifiedserviceproviders</title>
    <desc>Created with Sketch.</desc>
    <defs>
        <path d="M30.2568293,0.265609756 C29.52,0.267439024 28.7919512,0.295609756 28.0767073,0.349390244 L28.0767073,0.349390244 C20.0067073,0.955609756 12.195,4.76012195 6.73426829,10.7206098 L6.73426829,10.7206098 C-0.0420731707,18.1185366 -1.28817073,28.8340244 1.26439024,38.1980488 L1.26439024,38.1980488 C1.60426829,39.4467073 2.02280488,40.7956098 2.5295122,42.167561 L2.5295122,42.167561 C3.43573171,44.7706098 4.6997561,47.3030488 6.3204878,49.7169512 L6.3204878,49.7169512 C11.3030488,57.1368293 24.8762195,60.7939024 30.4587805,52.1323171 L30.4587805,52.1323171 C32.930122,48.2992683 32.1940244,43.4187805 32.8221951,39.1328049 L32.8221951,39.1328049 C33.1664634,36.7854878 33.8740244,34.5428049 35.1058537,32.5097561 L35.1058537,32.5097561 C36.6164634,30.0146341 39.1730488,28.5069512 41.7406098,27.2926829 L41.7406098,27.2926829 C45.9797561,25.2863415 51.1697561,25.172561 53.027561,20.1336585 L53.027561,20.1336585 C54.5582927,15.9841463 51.7320732,11.0817073 49.2091463,7.98621951 L49.2091463,7.98621951 C44.8145122,2.59390244 37.2680488,0.283170732 30.4112195,0.265609756 L30.4112195,0.265609756 L30.2568293,0.265609756 Z" id="path-1"></path>
        <linearGradient x1="-14.6783295%" y1="-39.1851122%" x2="113.460897%" y2="133.60677%" id="linearGradient-3">
            <stop stop-color="#FFFFFF" offset="0%"></stop>
            <stop stop-color="#D4EDFB" offset="100%"></stop>
        </linearGradient>
    </defs>
    <g id="RWD" stroke="none" stroke-width="1" fill="none" fill-rule="evenodd">
        <g id="0-0-1-Home_outlined_input-Copy" transform="translate(-24.000000, -1999.000000)">
            <g id="trustedandcertifiedserviceproviders" transform="translate(24.000000, 1999.000000)">
                <g id="Group-9">
                    <mask id="mask-2" fill="white">
                        <use xlink:href="#path-1"></use>
                    </mask>
                    <g id="Clip-8"></g>
                    <path d="M30.2568293,0.265609756 C29.52,0.267439024 28.7919512,0.295609756 28.0767073,0.349390244 L28.0767073,0.349390244 C20.0067073,0.955609756 12.195,4.76012195 6.73426829,10.7206098 L6.73426829,10.7206098 C-0.0420731707,18.1185366 -1.28817073,28.8340244 1.26439024,38.1980488 L1.26439024,38.1980488 C1.60426829,39.4467073 2.02280488,40.7956098 2.5295122,42.167561 L2.5295122,42.167561 C3.43573171,44.7706098 4.6997561,47.3030488 6.3204878,49.7169512 L6.3204878,49.7169512 C11.3030488,57.1368293 24.8762195,60.7939024 30.4587805,52.1323171 L30.4587805,52.1323171 C32.930122,48.2992683 32.1940244,43.4187805 32.8221951,39.1328049 L32.8221951,39.1328049 C33.1664634,36.7854878 33.8740244,34.5428049 35.1058537,32.5097561 L35.1058537,32.5097561 C36.6164634,30.0146341 39.1730488,28.5069512 41.7406098,27.2926829 L41.7406098,27.2926829 C45.9797561,25.2863415 51.1697561,25.172561 53.027561,20.1336585 L53.027561,20.1336585 C54.5582927,15.9841463 51.7320732,11.0817073 49.2091463,7.98621951 L49.2091463,7.98621951 C44.8145122,2.59390244 37.2680488,0.283170732 30.4112195,0.265609756 L30.4112195,0.265609756 L30.2568293,0.265609756 Z" id="Fill-7" fill="url(#linearGradient-3)" mask="url(#mask-2)"></path>
                </g>
                <g id="Group-104" transform="translate(8.278756, 12.668988)">
                    <path d="M11.1303659,24.3795482 C11.0703659,24.3583287 11.0030488,24.3517433 10.9368293,24.3561335 C10.9276829,24.2939384 10.9210976,24.2310116 10.9093902,24.1695482 C10.9895122,24.1688165 11.0710976,24.1688165 11.1523171,24.1669872 C11.1457317,24.2379628 11.1376829,24.3089384 11.1303659,24.3795482 M24.7353659,17.9902799 C24.7360976,17.992475 24.7368293,17.995036 24.7379268,17.9972311 C24.6362195,17.9829628 24.534878,17.9690604 24.4309756,17.9544262 C24.2217073,17.9251579 24.0252439,17.8684506 23.8360976,17.7952799 C23.690122,17.472597 23.5221951,17.1612555 23.3590244,16.870036 C22.8168293,15.8233287 22.1670732,15.0638165 21.474878,14.3152799 L14.7182927,14.3152799 C14.6045122,14.3921091 14.4632927,14.4407677 14.2906098,14.4407677 L3.77158537,14.4407677 C3.59560976,14.4407677 3.45219512,14.3906457 3.33768293,14.3116213 C2.62829268,14.5464994 2.16036585,15.0579628 1.92987805,15.8357677 C1.69536585,16.6282067 2.06304878,17.5036945 2.84817073,18.0762555 C3.10536585,18.2643043 5.87560976,17.3829628 6.20670732,17.4308896 C5.82439024,17.4513774 3.96621951,18.4256457 3.5897561,18.4552799 C1.3302439,18.6308896 0.993658537,19.6388165 0.314268293,20.3244262 C-0.0962195122,20.7389384 0.542560976,21.3780848 0.953414634,20.9635726 C1.30280488,20.6108896 1.57829268,20.2234506 1.88853659,19.8363774 C1.92987805,19.7847921 1.98109756,19.7394262 2.03597561,19.6962555 C2.0652439,19.8564994 2.16695122,20.0028409 2.34621951,20.0504018 C3.47743902,20.3504018 4.65,20.2958896 5.80463415,20.4180848 C5.85804878,20.4235726 5.90378049,20.4191823 5.94658537,20.4096701 C6.11378049,20.7967433 6.35780488,21.1538165 6.63804878,21.484914 C6.71780488,21.6093043 6.17304878,22.3194262 6.28207317,22.4266213 C3.69621951,22.5517433 2.7347561,23.0068652 1.49853659,24.9846701 C1.18865854,25.4807677 1.97121951,25.9336945 2.27890244,25.4405238 C2.6052439,24.9191823 3.00182927,24.5083287 3.44560976,24.1732067 C3.52573171,24.3729628 3.74341463,24.5372311 3.99219512,24.4936945 C4.57573171,24.392353 5.15487805,24.2752799 5.73146341,24.152353 C5.82841463,24.2361335 5.96268293,24.2804018 6.12621951,24.2430848 C6.23853659,24.2171091 6.35121951,24.1936945 6.46390244,24.1695482 C6.87036585,24.2054018 7.27646341,24.2244262 7.68292683,24.2277189 C7.77731707,24.2332067 7.87060976,24.2361335 7.965,24.2412555 C7.85378049,24.5419872 7.77256098,24.867597 7.71365854,25.2067433 C7.59731707,25.152597 7.46121951,25.1536945 7.33463415,25.2495482 C7.11402439,25.4167433 6.91243902,25.6505238 6.75878049,25.9121091 C6.19280488,26.0891823 6.57439024,26.4382067 6.00621951,26.6328409 C4.39939024,27.182353 3.84695122,27.7988165 3.17597561,29.0105238 C2.89792683,29.5135726 3.45841463,30.1095482 3.81512195,29.6493043 C4.18243902,29.1762555 4.48646341,28.6545482 4.85012195,28.180036 C4.88597561,28.222475 4.92585366,28.2612555 4.96865854,28.2883287 C5.60341463,28.6834506 6.71926829,28.4390604 7.64121951,28.247353 C7.74402439,28.5711335 8.1402439,28.6571091 8.37036585,28.4416213 C8.46987805,28.827597 8.63890244,29.1868652 8.94987805,29.4484506 C9.13865854,29.607597 9.40280488,29.632475 9.58865854,29.4484506 C9.96585366,29.0756457 10.0928049,28.6216213 10.1619512,28.129914 C10.1718293,28.1310116 10.1813415,28.1321091 10.1915854,28.1332067 C10.2241463,28.2722311 10.2629268,28.4101579 10.314878,28.5462555 C10.3818293,28.7204018 10.5479268,28.852475 10.7231707,28.8755238 C10.8995122,29.554914 11.2415854,30.1636945 11.7742683,30.5807677 C11.7764634,30.5847921 11.7782927,30.5884506 11.7804878,30.5921091 C11.7654878,30.6114994 11.7552439,30.6334506 11.7435366,30.6546701 C11.4940244,30.6184506 11.2445122,30.5719872 10.9960976,30.5006457 C10.4345122,30.3404018 10.2314634,31.1207677 10.7560976,31.3721091 C12.2571951,32.0910116 16.6119512,31.807475 18.3965854,31.5305238 C19.4937805,31.3596701 20.5280488,31.0263774 21.5710976,30.6934506 C22.0452439,30.3864994 22.4718293,30.0788165 22.8413415,29.7857677 C22.9895122,29.5951579 23.1303659,29.3983287 23.2631707,29.1971091 C23.5990244,29.0043043 23.9381707,28.8243043 24.3519512,28.712353 C24.3812195,28.7039384 24.4112195,28.6977189 24.4412195,28.690036 C24.4368293,28.6980848 24.4339024,28.7061335 24.429878,28.7141823 C26.1797561,28.5843043 31.2907317,28.7654018 31.5768293,29.0317433 C31.580122,24.2632067 31.5819512,23.1758896 31.5845122,18.4088165 C31.1608537,18.512353 26.4987805,18.2558896 24.7353659,17.9902799" id="Fill-95" fill="#F39E8C"></path>
                    <path d="M24.7352195,17.990353 C25.0235122,18.7187677 25.1347317,19.4932799 24.8833902,20.2546213 C24.7275366,20.7276701 23.9782683,20.525353 24.1348537,20.0486457 C24.4868049,18.9832799 23.8919268,17.820597 23.358878,16.8697433 C21.6887561,13.6425482 18.9924146,13.1468165 17.1905854,7.27559695 C16.5946098,5.33218232 15.5811951,3.67596281 15.3821707,1.68315793 C15.3082683,0.945231098 15.1966829,0.213889635 14.3263171,0.0349871959 C13.4727805,-0.14062256 12.9232683,0.368279879 12.504,1.03706037 C11.7287561,2.275475 11.6116829,3.67779207 11.6987561,5.06401159 C11.8136341,6.88010915 12.3386341,7.87669451 13.3509512,9.39608476 C14.6508293,11.3490116 14.9029024,13.7442555 12.086561,13.8627921 C9.17765854,13.985353 7.75119512,13.845597 4.84046341,13.8598652 C3.56326829,13.8660848 2.25314634,14.7452311 1.92973171,15.8358409 C1.69521951,16.627914 2.06290244,17.5037677 2.84839024,18.0763287 C3.25485366,18.3734018 3.73119512,18.4246213 4.34912195,18.4531579 C4.33192683,18.4663287 4.31619512,18.4794994 4.29936585,18.4926701 L8.739,18.4926701 C8.81326829,18.3426701 8.96985366,18.2307189 9.1787561,18.2742555 C9.67997561,18.3788896 10.2013171,18.097914 10.6410732,17.7957189 C10.7508293,17.7090116 10.8613171,17.6234018 10.9721707,17.5377921 C10.8320488,17.3687677 10.8159512,17.098036 11.0650976,16.9648652 C11.0757073,16.4358409 10.893878,16.2101091 10.5196098,16.2884018 C10.4094878,16.2927921 10.2993659,16.2946213 10.188878,16.2920604 C10.0154634,16.2869384 9.84168293,16.2785238 9.66826829,16.2697433 C9.24387805,16.2466945 8.81985366,16.2221823 8.39509756,16.2126701 C7.96668293,16.2024262 7.48412195,16.0162067 7.31070732,16.5664506 C7.16107317,17.0416945 6.41143902,16.8390116 6.56290244,16.3601091 C6.6185122,16.1819384 6.7187561,16.0370604 6.84607317,15.9148652 C6.86765854,15.7871823 6.94997561,15.6701091 7.11241463,15.6240116 C7.3344878,15.5607189 7.55656098,15.4999872 7.779,15.4443774 C7.04765854,15.4736457 6.31668293,15.5201091 5.58826829,15.5958409 C5.38192683,15.6174262 5.26339024,15.4963287 5.229,15.3437677 C4.96485366,15.1564506 5.03765854,14.6336457 5.44887805,14.6336457 L7.91326829,14.6336457 C8.53339024,14.6288896 9.054,14.6501091 10.2053415,14.6501091 C12.2511951,14.6501091 13.2682683,16.4146213 12.6550976,17.9076701 C12.5131463,18.2559628 12.2918049,18.5362067 12.0192439,18.7641335 C13.1354634,19.0487677 13.9820488,20.0727921 13.9820488,21.2676701 C13.9820488,21.8910848 13.7511951,22.4687677 13.3718049,22.9194994 C14.4163171,23.2513287 15.1911951,24.2394994 15.1911951,25.3824262 C15.1911951,26.6135238 14.2930244,27.6660848 13.1255854,27.9119384 C13.581439,28.3794994 13.866439,29.0146213 13.866439,29.7064506 C13.866439,30.5270604 13.266439,31.2931579 12.6550976,31.7694994 C14.739,31.9465726 17.0793659,31.9473043 19.1343659,31.6502311 C20.766439,31.4138896 21.9971707,30.8863287 22.8411951,29.7858409 C23.9347317,28.3827921 24.648878,26.6501091 24.2592439,25.1523043 C24.1330244,24.6675482 24.881561,24.4619384 25.0077805,24.9463287 C25.3209512,26.1521823 25.041439,27.4809628 24.4297317,28.7142555 C26.1796098,28.5843774 31.2909512,28.765475 31.5766829,29.0318165 C31.5799756,24.2632799 31.5821707,23.1759628 31.5847317,18.4088896 C31.1607073,18.5124262 26.4986341,18.2559628 24.7352195,17.990353" id="Fill-96" fill="#FAC5B6"></path>
                    <path d="M26.6327195,18.194353 C26.6345488,18.2163043 26.6393049,18.2360604 26.6393049,18.2591091 L26.6393049,28.674597 C28.7704024,28.6987433 31.3752805,28.8436213 31.5768659,29.0316701 C31.5797927,24.2631335 31.5819878,23.1758165 31.5845488,18.4087433 C31.273939,18.484475 28.686622,18.3674018 26.6327195,18.194353" id="Fill-97" fill="#E7B8AB"></path>
                    <path d="M8.46329268,15.4100604 C8.81012195,15.4349384 9.11634146,15.4642067 9.33987805,15.4762799 C9.58243902,15.4890848 9.88865854,15.4682311 10.2054878,15.4605482 C10.0412195,15.4349384 9.8747561,15.4188409 9.70865854,15.4100604 L8.46329268,15.4100604 Z" id="Fill-98" fill="#81B6DB"></path>
                    <path d="M28.1232805,30.2646701 C28.1262073,25.7317433 28.1284024,21.1988165 28.1313293,16.6658896 C28.1682805,14.4180848 28.1682805,14.417353 30.4131585,14.4210116 C32.3649878,14.4243043 34.3164512,14.4451579 36.2675488,14.4232067 C36.794378,14.417353 36.9432805,14.5721091 36.9400409,15.1084506 C36.9074268,20.4982067 36.8916951,25.8872311 36.9063293,31.2769872 C36.9081585,31.9589384 36.6645,32.1005238 36.044378,32.0910116 C33.7526707,32.0558896 31.4591341,32.0266213 29.1685244,32.0858896 C28.304378,32.107475 27.984622,31.8510116 28.1145,31.0069872 C28.1514512,30.7647921 28.1218171,30.512353 28.1232805,30.2646701" id="Fill-99" fill="#188FD5"></path>
                    <path d="M9.45043902,15.2785726 L4.57068293,15.2785726 C3.18482927,15.2785726 2.06129268,16.0380848 2.06129268,16.9757677 C2.06129268,17.9127189 3.18482927,18.672597 4.57068293,18.672597 L9.45043902,18.672597 C10.8366585,18.672597 11.9598293,17.9127189 11.9598293,16.9757677 C11.9598293,16.0380848 10.8366585,15.2785726 9.45043902,15.2785726" id="Fill-100" fill="#FAC5B6"></path>
                    <path d="M10.8267073,19.509853 L2.15597561,19.509853 C0.965487805,19.509853 -5.19909319e-13,20.2693652 -5.19909319e-13,21.207414 C-5.19909319e-13,22.1447311 0.965487805,22.9042433 2.15597561,22.9042433 L10.8267073,22.9042433 C12.017561,22.9042433 12.9826829,22.1447311 12.9826829,21.207414 C12.9826829,20.2693652 12.017561,19.509853 10.8267073,19.509853" id="Fill-101" fill="#FAC5B6"></path>
                    <path d="M11.797061,23.7878896 L3.49840244,23.7878896 C2.30828049,23.7878896 1.34279268,24.5474018 1.34279268,25.4850848 C1.34279268,26.4224018 2.30828049,27.1822799 3.49840244,27.1822799 L11.797061,27.1822799 C12.9879146,27.1822799 13.9534024,26.4224018 13.9534024,25.4850848 C13.9534024,24.5474018 12.9879146,23.7878896 11.797061,23.7878896" id="Fill-102" fill="#FAC5B6"></path>
                    <path d="M10.4994146,28.0191701 L5.10709756,28.0191701 C3.9162439,28.0191701 2.95112195,28.7790482 2.95112195,29.7167311 C2.95112195,30.6540482 3.9162439,31.4139262 5.10709756,31.4139262 L10.4994146,31.4139262 C11.6906341,31.4139262 12.6553902,30.6540482 12.6553902,29.7167311 C12.6553902,28.7790482 11.6906341,28.0191701 10.4994146,28.0191701" id="Fill-103" fill="#FAC5B6"></path>
                </g>
            </g>
        </g>
    </g>
</svg>